<svg viewBox="0 0 128 28" xmlns="http://www.w3.org/2000/svg"><defs><linearGradient id="a" x1="44.869%" x2="53.694%" y1="-7.366%" y2="87.825%"><stop stop-color="#8BB4F1" offset="0"/><stop stop-color="#00A4AA" offset="1"/></linearGradient><linearGradient id="b" x1="47.276%" x2="47.276%" y1="1.865%" y2="101.99%"><stop stop-color="#FFAD40" offset="0"/><stop stop-color="#FF3AAE" offset="1"/></linearGradient><linearGradient id="c" x1="49.401%" x2="49.401%" y1="2.491%" y2="100.97%"><stop stop-color="#8DB4F3" offset="0"/><stop stop-color="#B86BF0" offset="1"/></linearGradient><linearGradient id="d" x1="48.592%" x2="48.592%" y1="-1.304%" y2="97.172%"><stop stop-color="#02F7E0" offset="0"/><stop stop-color="#00D6F4" offset="1"/></linearGradient></defs><g fill-rule="nonzero" fill="none"><path d="M60.625 3.75C54.756 3.75 50 8.507 50 14.375S54.757 25 60.625 25 71.25 20.243 71.25 14.375 66.493 3.75 60.625 3.75zm0 17.999a7.375 7.375 0 1 1 0-14.749 7.375 7.375 0 0 1 0 14.749zM86.684 4.374v11.91c0 2.967-2.45 5.436-5.444 5.43-2.996-.005-5.423-2.413-5.423-5.382V4.376a.622.622 0 0 0-.185-.442.633.633 0 0 0-.446-.183h-2.055a.633.633 0 0 0-.446.183.622.622 0 0 0-.185.442v11.898c0 4.8 3.963 8.756 8.807 8.726C86.114 24.97 90 21.1 90 16.33V4.376a.622.622 0 0 0-.184-.442.634.634 0 0 0-.446-.183h-2.055a.627.627 0 0 0-.631.624zM96.593 5.635v-1.26c0-.345-.242-.625-.54-.625H94.29c-.299 0-.54.28-.54.625v20c0 .345.241.625.54.625h1.761c.299 0 .541-.28.541-.624v-11.95c0-2.756 1.802-5.067 4.176-5.351.274-.035.482-.303.481-.621V4.41a.674.674 0 0 0-.174-.46.5.5 0 0 0-.41-.164c-1.487.132-2.905.776-4.073 1.848zM107.07 24.349V12.465c0-2.966 2.45-5.435 5.443-5.43 2.997.006 5.424 2.414 5.424 5.383v11.93c0 .36.294.652.657.652h2.002a.654.654 0 0 0 .657-.651V12.476c0-4.8-3.963-8.756-8.807-8.726-4.806.03-8.693 3.9-8.693 8.67v11.93c0 .359.294.65.657.65h2.003a.654.654 0 0 0 .657-.65z" fill="#333"/><rect x="123.75" y="3.75" width="3.313" height="21.25" rx=".65" fill="#333"/><path d="M45.498 4.375v11.912c0 2.963-2.352 5.404-5.285 5.427a5.261 5.261 0 0 1-3.09-.969.612.612 0 0 0-.864.165c-.332.499-.72 1.063-1.142 1.653a.63.63 0 0 0 .148.879A8.476 8.476 0 0 0 40.19 25c4.74-.01 8.56-3.94 8.56-8.73V4.375a.622.622 0 0 0-.618-.625h-2.015a.624.624 0 0 0-.62.625z" fill="#333"/><path d="m22.296 4.591-3.857.826a.601.601 0 0 0-.463.714l4.477 20.872a.6.6 0 0 0 .713.46l3.86-.826a.6.6 0 0 0 .474-.584v-.006a.604.604 0 0 0-.014-.124L23.01 5.051a.6.6 0 0 0-.713-.461" fill="url(#a)"/><path d="M13.036.003a.6.6 0 0 0-.6.6v26.263a.6.6 0 0 0 .6.6h2.876a.6.6 0 0 0 .601-.6V.604a.6.6 0 0 0-.6-.601h-2.877z" fill="url(#b)"/><path d="M6.105 0a.6.6 0 0 0-.6.6v26.263a.6.6 0 0 0 .6.6h4.303a.6.6 0 0 0 .6-.6V.6a.6.6 0 0 0-.6-.601H6.105z" fill="url(#c)"/><path d="M.6 4.62a.6.6 0 0 0-.6.6V26.87a.6.6 0 0 0 .6.6h2.877a.6.6 0 0 0 .601-.6V5.22a.6.6 0 0 0-.6-.601H.6z" fill="url(#d)"/></g></svg>
